<svg width="36" height="35" viewBox="0 0 36 35" fill="none" xmlns="http://www.w3.org/2000/svg">
<path d="M17.5009 34.9999C12.8254 34.9999 8.43173 33.1798 5.12499 29.8749C1.81825 26.57 -4.74351e-08 22.1745 -4.74351e-08 17.499C-4.74351e-08 12.8235 1.82009 8.42989 5.12499 5.12499C8.42989 1.82009 12.8254 -2.67042e-07 17.5009 -2.67042e-07C22.1764 -2.67042e-07 26.57 1.82009 29.8767 5.12499C33.1835 8.42989 35.0017 12.8254 35.0017 17.499C35.0017 22.1727 33.1816 26.5682 29.8767 29.8749C26.5718 33.1798 22.1764 34.9999 17.5009 34.9999ZM17.5009 1.84036C8.86649 1.84036 1.8422 8.86465 1.8422 17.499C1.8422 26.1334 8.86649 33.1577 17.5009 33.1577C26.1334 33.1577 33.1595 26.1334 33.1595 17.499C33.1595 8.86465 26.1334 1.84036 17.5009 1.84036Z" fill="#828282"/>
<path d="M29.3167 15.5435C29.0827 14.1195 28.5982 12.7637 27.8743 11.5091C27.62 11.0689 27.0563 10.9178 26.616 11.1739C26.1757 11.4299 26.0247 11.9918 26.2789 12.4321C26.7063 13.1726 27.0361 13.9537 27.2626 14.768C27.0821 14.7459 26.8997 14.7348 26.7137 14.7348H21.1852C21.1079 14.6335 21.0268 14.534 20.9421 14.4382C22.9151 12.9258 23.9504 10.8202 23.9504 8.28713C23.9504 5.74859 21.8834 3.68164 19.3449 3.68164C17.7735 3.68164 16.3808 4.47563 15.55 5.68227C14.1241 5.91623 12.7682 6.40072 11.5137 7.12471C11.0734 7.37893 10.9224 7.94264 11.1784 8.38293C11.3497 8.67768 11.6592 8.84348 11.9761 8.84348C12.1327 8.84348 12.2911 8.80295 12.4366 8.72005C13.1772 8.29266 13.9583 7.96291 14.7725 7.73632C14.7523 7.91685 14.7412 8.09923 14.7412 8.28529V13.8137C14.6399 13.8911 14.5404 13.9722 14.4446 14.0569C12.9304 12.0839 10.8266 11.0486 8.29354 11.0486C5.75499 11.0486 3.68805 13.1155 3.68805 15.6541C3.68805 17.2273 4.48204 18.6182 5.68867 19.4508C5.92263 20.8749 6.40713 22.2307 7.13112 23.4853C7.30244 23.78 7.61193 23.9458 7.92879 23.9458C8.08537 23.9458 8.2438 23.9053 8.38934 23.8224C8.82962 23.5682 8.98068 23.0044 8.72646 22.5642C8.29907 21.8236 7.96931 21.0425 7.74272 20.2283C7.92326 20.2504 8.10564 20.2614 8.2917 20.2614H13.8201C13.8975 20.3627 13.9786 20.4622 14.0633 20.558C12.0903 22.0705 11.055 24.1742 11.055 26.7091C11.055 29.2476 13.1219 31.3146 15.6605 31.3146C17.2319 31.3146 18.6246 30.5206 19.4554 29.314C20.8794 29.08 22.2371 28.5955 23.4898 27.8715C23.9301 27.6173 24.0812 27.0536 23.8251 26.6133C23.569 26.173 23.009 26.022 22.5669 26.278C21.8263 26.7054 21.0452 27.0352 20.231 27.2618C20.2531 27.0812 20.2641 26.8988 20.2641 26.7128V21.1844C20.3655 21.107 20.4649 21.0259 20.5607 20.9412C22.0732 22.9142 24.177 23.9495 26.7118 23.9495C29.2504 23.9495 31.3173 21.8825 31.3173 19.344C31.3173 17.7708 30.5233 16.3799 29.3167 15.5472V15.5435ZM17.5008 20.2614C15.9773 20.2614 14.7375 19.0216 14.7375 17.4981C14.7375 15.9746 15.9773 14.7348 17.5008 14.7348C19.0243 14.7348 20.2641 15.9746 20.2641 17.4981C20.2641 19.0216 19.0243 20.2614 17.5008 20.2614ZM16.5797 8.28713C16.5797 6.76364 17.8195 5.52384 19.343 5.52384C20.8665 5.52384 22.1063 6.76364 22.1063 8.28713C22.1063 10.4204 21.1871 12.1023 19.3744 13.2924C18.8014 13.0363 18.1696 12.8926 17.5008 12.8926C17.1858 12.8926 16.8782 12.9239 16.5797 12.9847V8.28713ZM8.28986 18.4192C6.76636 18.4192 5.52656 17.1794 5.52656 15.6559C5.52656 14.1324 6.76636 12.8926 8.28986 12.8926C10.4231 12.8926 12.105 13.8119 13.2951 15.6246C13.039 16.1975 12.8953 16.8312 12.8953 17.4981C12.8953 17.8131 12.9267 18.1208 12.9875 18.4192H8.28986ZM18.4219 26.7091C18.4219 28.2326 17.1821 29.4724 15.6586 29.4724C14.1351 29.4724 12.8953 28.2326 12.8953 26.7091C12.8953 24.5758 13.8146 22.8939 15.6273 21.7039C16.2002 21.9599 16.8321 22.1036 17.5008 22.1036C17.8159 22.1036 18.1235 22.0723 18.4219 22.0115V26.7091ZM26.7118 22.1036C24.5786 22.1036 22.8966 21.1844 21.7066 19.3716C21.9626 18.7987 22.1063 18.165 22.1063 17.4981C22.1063 17.1831 22.075 16.8755 22.0142 16.577H26.7118C28.2353 16.577 29.4751 17.8168 29.4751 19.3403C29.4751 20.8638 28.2353 22.1036 26.7118 22.1036Z" fill="#828282"/>
</svg>
